<svg width="88" height="24" viewBox="0 0 88 24" fill="none" xmlns="http://www.w3.org/2000/svg">
<path d="M9.15648 0H13.9162V14H9.15648V0ZM4.75976 14H0V0H4.75976V14ZM9.47917 8.84H4.43706V4.96H9.47917V8.84ZM20.566 5.2H26.8585V8.6H20.566V5.2ZM20.8887 10.44H27.9476V14H16.2096V0H27.6854V3.56H20.8887V10.44ZM29.78 14V0H34.5398V10.34H40.913V14H29.78ZM42.2277 14V0H49.0245C50.3422 0 51.4783 0.21333 52.4329 0.64C53.401 1.06667 54.1473 1.68 54.6716 2.48C55.196 3.26667 55.4582 4.2 55.4582 5.28C55.4582 6.36 55.196 7.2933 54.6716 8.08C54.1473 8.8667 53.401 9.48 52.4329 9.92C51.4783 10.3467 50.3422 10.56 49.0245 10.56H44.8698L46.9875 8.54V14H42.2277ZM46.9875 9.06L44.8698 6.92H48.7219C49.3807 6.92 49.8648 6.77333 50.1741 6.48C50.4968 6.18667 50.6581 5.78667 50.6581 5.28C50.6581 4.77333 50.4968 4.37333 50.1741 4.08C49.8648 3.78667 49.3807 3.64 48.7219 3.64H44.8698L46.9875 1.5V9.06ZM57.0192 14V0H60.9319L66.5791 9.14H64.5219L70.0077 0H73.9204L73.9607 14H69.6245L69.5842 6.48H70.2699L66.5186 12.74H64.4211L60.5084 6.48H61.3555V14H57.0192ZM80.6183 5.2H86.9109V8.6H80.6183V5.2ZM80.941 10.44H88V14H76.262V0H87.7378V3.56H80.941V10.44Z" fill="#27282A"/>
<path d="M6.07815 18.3373H6.65961V23.9598H6.07815V18.3373ZM2.58942 23.9598H2V18.3373H2.58942V23.9598ZM6.13391 21.3655H2.5257V20.8434H6.13391V21.3655ZM10.9327 24C10.4973 24 10.115 23.9089 9.78573 23.7269C9.45647 23.5395 9.199 23.2851 9.01312 22.9639C8.82727 22.6372 8.73434 22.2651 8.73434 21.8474C8.73434 21.4297 8.82196 21.0602 8.99719 20.739C9.17769 20.4177 9.42202 20.166 9.72997 19.9839C10.0433 19.7965 10.3938 19.7028 10.7814 19.7028C11.1744 19.7028 11.5221 19.7939 11.8248 19.9759C12.1328 20.1526 12.3744 20.4043 12.5496 20.7309C12.7249 21.0522 12.8125 21.4244 12.8125 21.8474C12.8125 21.8742 12.8098 21.9036 12.8045 21.9357C12.8045 21.9625 12.8045 21.992 12.8045 22.0241H9.16445V21.5984H12.5018L12.2788 21.7671C12.2788 21.4618 12.2124 21.1915 12.0797 20.9558C11.9522 20.7149 11.777 20.5274 11.554 20.3936C11.331 20.2597 11.0734 20.1928 10.7814 20.1928C10.4946 20.1928 10.2371 20.2597 10.0088 20.3936C9.78045 20.5274 9.60253 20.7149 9.47509 20.9558C9.34765 21.1968 9.28393 21.4726 9.28393 21.7831V21.8715C9.28393 22.1928 9.35292 22.4766 9.49102 22.7229C9.63439 22.9639 9.83083 23.1539 10.0804 23.2932C10.3353 23.427 10.6248 23.494 10.9486 23.494C11.2035 23.494 11.4398 23.4485 11.6575 23.3574C11.8806 23.2664 12.0717 23.1272 12.231 22.9398L12.5496 23.3092C12.3637 23.5341 12.1302 23.7055 11.8487 23.8233C11.5726 23.9411 11.2672 24 10.9327 24ZM17.264 23.9598V23.0281L17.2401 22.8755V21.3173C17.2401 20.9585 17.1391 20.6827 16.9374 20.49C16.7409 20.2972 16.4462 20.2008 16.0533 20.2008C15.7825 20.2008 15.5249 20.2463 15.2807 20.3373C15.0364 20.4284 14.8293 20.5489 14.6594 20.6988L14.4045 20.2731C14.6169 20.0911 14.8718 19.9518 15.1692 19.8554C15.4665 19.7537 15.7798 19.7028 16.1091 19.7028C16.6507 19.7028 17.0675 19.8394 17.3596 20.1124C17.6569 20.3802 17.8056 20.7899 17.8056 21.3414V23.9598H17.264ZM15.8223 24C15.509 24 15.2355 23.9491 15.0019 23.8474C14.7735 23.7403 14.5983 23.5957 14.4762 23.4137C14.354 23.2262 14.293 23.012 14.293 22.7711C14.293 22.5515 14.3434 22.3534 14.4443 22.1767C14.5505 21.9947 14.7204 21.8501 14.9541 21.743C15.1931 21.6305 15.5117 21.5743 15.9099 21.5743H17.3516V22H15.9259C15.5222 22 15.2409 22.0723 15.0816 22.2169C14.9275 22.3614 14.8506 22.5409 14.8506 22.755C14.8506 22.996 14.9435 23.1888 15.1293 23.3333C15.3151 23.4779 15.5754 23.5502 15.9099 23.5502C16.2285 23.5502 16.5019 23.4779 16.7303 23.3333C16.9639 23.1834 17.1339 22.9692 17.2401 22.6908L17.3675 23.0843C17.2613 23.3628 17.0754 23.585 16.81 23.751C16.5497 23.917 16.2206 24 15.8223 24ZM20.1381 23.9598V18H20.7036V23.9598H20.1381ZM24.4193 24C24.0263 24 23.7236 23.8929 23.5113 23.6787C23.2988 23.4646 23.1927 23.1619 23.1927 22.7711V18.8112H23.7582V22.739C23.7582 22.9852 23.8192 23.1754 23.9414 23.3092C24.0688 23.4431 24.2493 23.51 24.483 23.51C24.7325 23.51 24.9396 23.4378 25.1043 23.2932L25.3034 23.7028C25.1919 23.8045 25.0565 23.8795 24.8972 23.9277C24.7432 23.9759 24.5839 24 24.4193 24ZM22.4439 20.2169V19.743H25.0326V20.2169H22.4439ZM29.2641 19.7028C29.6039 19.7028 29.9013 19.7698 30.1562 19.9036C30.4163 20.0321 30.6182 20.2302 30.7615 20.498C30.9102 20.7658 30.9846 21.1031 30.9846 21.51V23.9598H30.419V21.5663C30.419 21.1218 30.3075 20.7871 30.0845 20.5622C29.8668 20.332 29.5588 20.2169 29.1605 20.2169C28.8631 20.2169 28.603 20.2784 28.38 20.4016C28.1622 20.5194 27.9923 20.6935 27.8702 20.9237C27.7533 21.1486 27.695 21.4217 27.695 21.743V23.9598H27.1294V18H27.695V20.8996L27.5834 20.6827C27.7162 20.3775 27.9285 20.1393 28.2207 19.9679C28.5127 19.7912 28.8605 19.7028 29.2641 19.7028ZM36.3093 23.9598V18.3373H38.3961C38.8687 18.3373 39.2749 18.415 39.6148 18.5703C39.9546 18.7202 40.2148 18.9398 40.3954 19.2289C40.5812 19.5128 40.6742 19.8581 40.6742 20.2651C40.6742 20.6613 40.5812 21.004 40.3954 21.2932C40.2148 21.577 39.9546 21.7965 39.6148 21.9518C39.2749 22.1071 38.8687 22.1847 38.3961 22.1847H36.6358L36.8987 21.9036V23.9598H36.3093ZM36.8987 21.9518L36.6358 21.6627H38.3802C38.9378 21.6627 39.3599 21.5422 39.6467 21.3012C39.9387 21.0549 40.0847 20.7095 40.0847 20.2651C40.0847 19.8153 39.9387 19.4672 39.6467 19.2209C39.3599 18.9746 38.9378 18.8514 38.3802 18.8514H36.6358L36.8987 18.5703V21.9518ZM42.5246 23.9598V19.743H43.0662V20.8916L43.0104 20.6908C43.1272 20.3695 43.3237 20.1258 43.5999 19.9598C43.8759 19.7885 44.2184 19.7028 44.6274 19.7028V20.257C44.606 20.257 44.5848 20.257 44.5636 20.257C44.5423 20.2517 44.5211 20.249 44.4999 20.249C44.0591 20.249 43.714 20.3855 43.4644 20.6586C43.2148 20.9264 43.0901 21.3092 43.0901 21.8072V23.9598H42.5246ZM48.1215 24C47.7178 24 47.3541 23.9089 47.0302 23.7269C46.7116 23.5395 46.4593 23.2851 46.2736 22.9639C46.0877 22.6372 45.9948 22.2651 45.9948 21.8474C45.9948 21.4244 46.0877 21.0522 46.2736 20.7309C46.4593 20.4096 46.7116 20.1579 47.0302 19.9759C47.3489 19.7939 47.7126 19.7028 48.1215 19.7028C48.5357 19.7028 48.902 19.7939 49.2207 19.9759C49.5445 20.1579 49.7967 20.4096 49.9773 20.7309C50.1631 21.0522 50.2561 21.4244 50.2561 21.8474C50.2561 22.2651 50.1631 22.6372 49.9773 22.9639C49.7967 23.2851 49.5445 23.5395 49.2207 23.7269C48.8967 23.9089 48.5303 24 48.1215 24ZM48.1215 23.494C48.4241 23.494 48.6923 23.427 48.9259 23.2932C49.1595 23.1539 49.3427 22.9611 49.4755 22.7149C49.6135 22.4632 49.6826 22.174 49.6826 21.8474C49.6826 21.5154 49.6135 21.2262 49.4755 20.9799C49.3427 20.7336 49.1595 20.5435 48.9259 20.4096C48.6923 20.2704 48.4267 20.2008 48.1294 20.2008C47.832 20.2008 47.5665 20.2704 47.3329 20.4096C47.0992 20.5435 46.9134 20.7336 46.7754 20.9799C46.6373 21.2262 46.5683 21.5154 46.5683 21.8474C46.5683 22.174 46.6373 22.4632 46.7754 22.7149C46.9134 22.9611 47.0992 23.1539 47.3329 23.2932C47.5665 23.427 47.8293 23.494 48.1215 23.494ZM53.5294 24C53.1364 24 52.8337 23.8929 52.6214 23.6787C52.4089 23.4646 52.3028 23.1619 52.3028 22.7711V18.8112H52.8683V22.739C52.8683 22.9852 52.9293 23.1754 53.0515 23.3092C53.1789 23.4431 53.3594 23.51 53.5931 23.51C53.8426 23.51 54.0497 23.4378 54.2144 23.2932L54.4135 23.7028C54.302 23.8045 54.1666 23.8795 54.0073 23.9277C53.8533 23.9759 53.694 24 53.5294 24ZM51.554 20.2169V19.743H54.1427V20.2169H51.554ZM57.8679 24C57.4325 24 57.0502 23.9089 56.7209 23.7269C56.3918 23.5395 56.1342 23.2851 55.9483 22.9639C55.7625 22.6372 55.6695 22.2651 55.6695 21.8474C55.6695 21.4297 55.7572 21.0602 55.9324 20.739C56.113 20.4177 56.3572 20.166 56.6652 19.9839C56.9785 19.7965 57.329 19.7028 57.7166 19.7028C58.1096 19.7028 58.4573 19.7939 58.76 19.9759C59.0681 20.1526 59.3096 20.4043 59.4848 20.7309C59.6601 21.0522 59.7477 21.4244 59.7477 21.8474C59.7477 21.8742 59.7451 21.9036 59.7397 21.9357C59.7397 21.9625 59.7397 21.992 59.7397 22.0241H56.0997V21.5984H59.437L59.214 21.7671C59.214 21.4618 59.1477 21.1915 59.0149 20.9558C58.8875 20.7149 58.7122 20.5274 58.4892 20.3936C58.2662 20.2597 58.0087 20.1928 57.7166 20.1928C57.4298 20.1928 57.1724 20.2597 56.944 20.3936C56.7157 20.5274 56.5377 20.7149 56.4103 20.9558C56.2828 21.1968 56.2191 21.4726 56.2191 21.7831V21.8715C56.2191 22.1928 56.2882 22.4766 56.4262 22.7229C56.5696 22.9639 56.7661 23.1539 57.0156 23.2932C57.2705 23.427 57.56 23.494 57.8838 23.494C58.1387 23.494 58.3751 23.4485 58.5927 23.3574C58.8158 23.2664 59.0069 23.1272 59.1662 22.9398L59.4848 23.3092C59.299 23.5341 59.0654 23.7055 58.7839 23.8233C58.5078 23.9411 58.2024 24 57.8679 24ZM63.4318 24C63.0176 24 62.6458 23.9089 62.3166 23.7269C61.9927 23.5395 61.7378 23.2851 61.552 22.9639C61.3661 22.6372 61.2732 22.2651 61.2732 21.8474C61.2732 21.4244 61.3661 21.0522 61.552 20.7309C61.7378 20.4096 61.9927 20.1579 62.3166 19.9759C62.6458 19.7939 63.0176 19.7028 63.4318 19.7028C63.7875 19.7028 64.1088 19.7724 64.3955 19.9116C64.6823 20.0509 64.9079 20.2597 65.0726 20.5382L64.6504 20.8273C64.5071 20.6132 64.3291 20.4551 64.1168 20.3534C63.9043 20.2517 63.6733 20.2008 63.4238 20.2008C63.1264 20.2008 62.8583 20.2704 62.6193 20.4096C62.3804 20.5435 62.1918 20.7336 62.0538 20.9799C61.9157 21.2262 61.8467 21.5154 61.8467 21.8474C61.8467 22.1794 61.9157 22.4686 62.0538 22.7149C62.1918 22.9611 62.3804 23.1539 62.6193 23.2932C62.8583 23.427 63.1264 23.494 63.4238 23.494C63.6733 23.494 63.9043 23.4431 64.1168 23.3414C64.3291 23.2397 64.5071 23.0843 64.6504 22.8755L65.0726 23.1647C64.9079 23.4378 64.6823 23.6466 64.3955 23.7912C64.1088 23.9304 63.7875 24 63.4318 24ZM68.3489 24C67.956 24 67.6533 23.8929 67.4409 23.6787C67.2284 23.4646 67.1223 23.1619 67.1223 22.7711V18.8112H67.6878V22.739C67.6878 22.9852 67.7489 23.1754 67.871 23.3092C67.9985 23.4431 68.179 23.51 68.4127 23.51C68.6622 23.51 68.8693 23.4378 69.034 23.2932L69.2331 23.7028C69.1216 23.8045 68.9862 23.8795 68.8269 23.9277C68.6728 23.9759 68.5135 24 68.3489 24ZM66.3736 20.2169V19.743H68.9623V20.2169H66.3736ZM74.0597 23.9598V18.3373H74.5455L77.0944 22.7229H76.8395L79.3644 18.3373H79.8503V23.9598H79.2848V19.2289H79.4202L77.0944 23.245H76.8156L74.4738 19.2289H74.6252V23.9598H74.0597ZM84.1202 24C83.6848 24 83.3025 23.9089 82.9732 23.7269C82.6441 23.5395 82.3865 23.2851 82.2006 22.9639C82.0148 22.6372 81.9218 22.2651 81.9218 21.8474C81.9218 21.4297 82.0095 21.0602 82.1847 20.739C82.3653 20.4177 82.6095 20.166 82.9175 19.9839C83.2308 19.7965 83.5813 19.7028 83.9689 19.7028C84.3619 19.7028 84.7096 19.7939 85.0123 19.9759C85.3204 20.1526 85.5619 20.4043 85.7372 20.7309C85.9124 21.0522 86 21.4244 86 21.8474C86 21.8742 85.9974 21.9036 85.992 21.9357C85.992 21.9625 85.992 21.992 85.992 22.0241H82.352V21.5984H85.6894L85.4663 21.7671C85.4663 21.4618 85.4 21.1915 85.2672 20.9558C85.1398 20.7149 84.9645 20.5274 84.7415 20.3936C84.5185 20.2597 84.261 20.1928 83.9689 20.1928C83.6821 20.1928 83.4247 20.2597 83.1963 20.3936C82.968 20.5274 82.79 20.7149 82.6626 20.9558C82.5352 21.1968 82.4714 21.4726 82.4714 21.7831V21.8715C82.4714 22.1928 82.5405 22.4766 82.6785 22.7229C82.8219 22.9639 83.0184 23.1539 83.268 23.2932C83.5228 23.427 83.8123 23.494 84.1362 23.494C84.391 23.494 84.6274 23.4485 84.8451 23.3574C85.0681 23.2664 85.2592 23.1272 85.4185 22.9398L85.7372 23.3092C85.5514 23.5341 85.3177 23.7055 85.0362 23.8233C84.7601 23.9411 84.4548 24 84.1202 24Z" fill="#76797F"/>
</svg>
