<svg width="24" height="24" viewBox="0 0 24 24" fill="none" xmlns="http://www.w3.org/2000/svg">
<g clip-path="url(#clip0_5574_1659)">
<path d="M13.23 1.84613L13.078 2.00013V4.0771H11L8.57705 6.50007L8.50005 8.50005L6.50007 8.57705L4.0771 11L4.0001 13L2.00413 13.078L1.84613 13.231C0.663984 14.4148 0 16.0194 0 17.6924C0 19.3654 0.663984 20.97 1.84613 22.1539C3.02996 23.336 4.63457 24 6.30757 24C7.98058 24 9.58519 23.336 10.769 22.1539L22.1539 10.769C23.336 9.58519 24 7.98058 24 6.30757C24 4.63457 23.336 3.02996 22.1539 1.84613C20.97 0.663984 19.3654 0 17.6924 0C16.0194 0 14.4148 0.663984 13.231 1.84613" fill="#F3AD61"/>
<path d="M1.5 12.9585L6.07015 17.5279C6.21901 17.6775 6.39597 17.7963 6.59085 17.8773C6.78573 17.9583 6.99469 18 7.20574 18C7.41679 18 7.62576 17.9583 7.82064 17.8773C8.01552 17.7963 8.19247 17.6775 8.34133 17.5279C8.49094 17.3791 8.60965 17.2021 8.69066 17.0072C8.77167 16.8123 8.81337 16.6033 8.81337 16.3923C8.81337 16.1812 8.77167 15.9722 8.69066 15.7773C8.60965 15.5824 8.49094 15.4055 8.34133 15.2566L3.77118 10.6872L1.5 12.9585ZM6.0928 8.36544L10.6671 12.94C10.816 13.0898 10.993 13.2086 11.1879 13.2897C11.3829 13.3708 11.592 13.4126 11.8032 13.4126C12.0143 13.4126 12.2234 13.3708 12.4184 13.2897C12.6134 13.2086 12.7904 13.0898 12.9393 12.94C13.2377 12.6372 13.4051 12.229 13.4051 11.8038C13.4051 11.3786 13.2377 10.9705 12.9393 10.6676L8.36501 6.09309L6.0928 8.36544ZM10.6866 3.77132L15.2558 8.34176C15.4046 8.49153 15.5817 8.61038 15.7766 8.69148C15.9716 8.77259 16.1807 8.81434 16.3919 8.81434C16.603 8.81434 16.8121 8.77259 17.0071 8.69148C17.2021 8.61038 17.3791 8.49153 17.528 8.34176C17.6776 8.19289 17.7963 8.01592 17.8773 7.82103C17.9583 7.62614 18 7.41716 18 7.2061C18 6.99504 17.9583 6.78606 17.8773 6.59116C17.7963 6.39627 17.6776 6.21931 17.528 6.07044L12.9578 1.5L10.6866 3.77132Z" fill="#FFF3D7"/>
</g>
<defs>
<clipPath id="clip0_5574_1659">
<rect width="24" height="24" fill="white"/>
</clipPath>
</defs>
</svg>
