<svg width="24" height="24" viewBox="0 0 24 24" fill="none" xmlns="http://www.w3.org/2000/svg">
<g clip-path="url(#clip0_5574_1667)">
<path d="M22.1347 12.6646C21.363 13.4446 20.8828 14.4732 20.7884 15.5618C20.5998 17.7389 19.6479 19.7875 18.1044 21.3304C14.5371 24.8875 8.74033 24.8875 5.18164 21.3304L2.48047 18.6304L3.85249 17.2675C3.51806 14.5675 4.38415 11.7389 6.45076 9.67318C7.99429 8.13031 10.0438 7.17888 12.2218 6.9903C12.2892 6.98438 12.3564 6.97695 12.4234 6.96802C12.2619 6.44237 12.247 5.88264 12.3803 5.34915C12.5136 4.81566 12.79 4.32864 13.1797 3.94057C13.7241 3.39779 14.4539 3.08106 15.2224 3.05403C15.9908 3.027 16.7411 3.29167 17.3223 3.79486L19.5879 1.53027L22.2891 4.23029C24.5701 6.5103 24.5701 10.2303 22.2891 12.5103L22.1347 12.6646Z" fill="#FBB8AB"/>
<path fill-rule="evenodd" clip-rule="evenodd" d="M19.6135 10.1443C18.8418 10.9243 18.3616 11.9529 18.2672 13.0415C18.0802 15.2211 17.1333 17.2658 15.5918 18.8187C12.0245 22.3758 6.22771 22.3844 2.66902 18.8187C-0.889672 15.2529 -0.889672 9.45862 2.66902 5.90146C4.21254 4.3586 6.26201 3.40716 8.43152 3.21002C9.52546 3.1144 10.5512 2.63817 11.3299 1.8643L11.4843 1.71001C13.7653 -0.570003 17.4869 -0.570003 19.7679 1.71001C22.0489 3.99002 22.0489 7.71004 19.7679 9.99006L19.6135 10.1443ZM14.2884 5.04431C13.7138 5.6186 13.7138 6.54432 14.2884 7.11861C14.8629 7.6929 15.7976 7.6929 16.3721 7.12718C16.9467 6.55289 16.9467 5.6186 16.3721 5.04431C16.0956 4.76847 15.7209 4.61355 15.3302 4.61355C14.9396 4.61355 14.5649 4.76847 14.2884 5.04431Z" fill="#F4F4F4"/>
<path d="M4.86684 5.82319C4.30431 6.26891 4.38921 7.17577 5.06064 7.48692L9.27962 9.48407C9.28476 9.48407 9.28819 9.48664 9.29334 9.48836C9.29763 9.49007 9.30192 9.49264 9.30535 9.49264C10.1371 9.87836 11.1147 9.73264 11.7664 9.08121L12.401 8.44692C12.804 8.04406 12.9584 7.45263 12.7954 6.91263C12.6554 6.448 12.6436 5.95416 12.7613 5.48339C12.8791 5.01261 13.122 4.58242 13.4643 4.23833C13.7226 3.97886 14.0316 3.77533 14.3721 3.64042C14.7125 3.50552 15.0771 3.44212 15.4431 3.45418C15.8091 3.46624 16.1688 3.5535 16.4996 3.71053C16.8304 3.86756 17.1253 4.09099 17.366 4.3669C18.2492 5.36119 18.2492 6.88691 17.366 7.88978C16.6371 8.71264 15.5395 8.97835 14.5791 8.68692C14.3111 8.60411 14.0255 8.59628 13.7534 8.66428C13.4813 8.73228 13.233 8.87351 13.0355 9.07264L12.4096 9.69836C11.7578 10.3498 11.6121 11.3355 12.0065 12.1669C12.0065 12.1712 12.0091 12.1738 12.0117 12.1755C12.0134 12.1781 12.016 12.1798 12.016 12.1841L14.0225 16.3927C14.0927 16.5411 14.199 16.6697 14.3316 16.7666C14.4642 16.8635 14.619 16.9257 14.7818 16.9475C14.9446 16.9693 15.1103 16.95 15.2637 16.8915C15.4172 16.8329 15.5536 16.7368 15.6604 16.6121C16.3846 15.5093 16.8236 14.244 16.9381 12.9298C17.0581 11.5241 17.6756 10.2041 18.6703 9.20121L18.8246 9.04693C19.2528 8.61998 19.5907 8.11129 19.8181 7.55113C20.0456 6.99098 20.158 6.3908 20.1486 5.78634C20.1399 5.14415 19.9937 4.51127 19.7199 3.93024C19.4461 3.34922 19.0511 2.8335 18.5614 2.41775C16.7743 0.898881 14.0783 1.03088 12.3958 2.70061L12.2818 2.81546C11.2818 3.81459 9.96046 4.42791 8.55159 4.5469C7.2366 4.66097 5.9705 5.09952 4.86684 5.82319Z" fill="#DE2C2A"/>
<path d="M2.5274 8.19971C2.80009 7.79685 3.32403 7.65542 3.76565 7.85599L8.91932 10.2731C9.92261 10.7446 10.7373 11.5589 11.2175 12.5532L13.6614 17.6789C13.8758 18.1332 13.7128 18.6732 13.2926 18.9389C12.5004 19.4426 11.6232 19.7984 10.7038 19.9889C9.43845 20.2508 8.12781 20.194 6.88987 19.8237C5.65193 19.4534 4.52556 18.7811 3.61215 17.8675C0.986442 15.2437 0.625428 11.2109 2.5274 8.19885" fill="#DE2C2A"/>
</g>
<defs>
<clipPath id="clip0_5574_1667">
<rect width="24" height="24" fill="white"/>
</clipPath>
</defs>
</svg>
