<svg width="24" height="24" viewBox="0 0 24 24" fill="none" xmlns="http://www.w3.org/2000/svg">
<g id="&#236;&#158;&#132;&#236;&#139;&#156;">
<g id="Group">
<path id="Vector" d="M0.000976562 13.9889V15.2157C0.000976562 15.4269 0.0952907 15.6381 0.283919 15.7487L8.98655 20.7666C9.51814 21.0783 10.1526 21.0783 10.6842 20.7666L23.7167 13.3252C23.9053 13.2146 23.9997 13.0034 23.9997 12.7922V11.5654L0.000976562 13.9889Z" fill="#D3D3D3"/>
<path id="Vector_2" d="M13.942 5.68244L0.283603 13.4858C0.198536 13.5346 0.126856 13.6104 0.0767182 13.7047C0.0265809 13.7989 0 13.9077 0 14.0188C0 14.1298 0.0265809 14.2387 0.0767182 14.3329C0.126856 14.4271 0.198536 14.5029 0.283603 14.5517L8.98623 19.5696C9.51782 19.8814 10.1523 19.8814 10.6839 19.5696L23.7164 12.1283C23.8015 12.0795 23.8731 12.0037 23.9233 11.9094C23.9734 11.8152 24 11.7064 24 11.5953C24 11.4842 23.9734 11.3754 23.9233 11.2812C23.8731 11.187 23.8015 11.1111 23.7164 11.0623L14.3879 5.68244C14.3184 5.64272 14.2422 5.62207 14.1649 5.62207C14.0877 5.62207 14.0114 5.64272 13.942 5.68244Z" fill="#F4F4F4"/>
<path id="Vector_3" d="M14.499 3.12821C14.1989 2.95726 13.856 2.95726 13.5644 3.12821L6.67093 6.99973C6.448 7.13046 6.30225 7.40197 6.30225 7.69359C8.25884 10.8813 10.23 13.0373 12.8348 15.6176L12.9214 15.6679C13.1014 15.7685 13.3158 15.7685 13.5044 15.6679L13.615 15.6056C17.0412 11.6395 17.5771 11.0422 20.9381 7.32152C20.9381 7.0299 20.7923 6.75839 20.5694 6.62767L14.499 3.12821Z" fill="#FCD53F"/>
<path id="Vector_4" d="M6.30225 11.4689V7.67784C6.30225 7.47672 6.4823 7.33594 6.64521 7.42644L12.9471 11.0667C13.11 11.1572 13.2129 11.3583 13.2129 11.5695V15.3203C13.2129 15.5617 12.9986 15.7226 12.8099 15.6119L6.61091 12.0421C6.51845 11.9907 6.44035 11.9095 6.38571 11.808C6.33106 11.7065 6.30212 11.5889 6.30225 11.4689Z" fill="#FFF478"/>
<path id="Vector_5" d="M6.30225 11.4689V7.67784C6.30225 7.47672 6.4823 7.33594 6.64521 7.42644L12.9471 11.0667C13.11 11.1572 13.2129 11.3583 13.2129 11.5695V15.3203C13.2129 15.5617 12.9986 15.7226 12.8099 15.6119L6.61091 12.0421C6.51845 11.9907 6.44035 11.9095 6.38571 11.808C6.33106 11.7065 6.30212 11.5889 6.30225 11.4689Z" fill="#FFF478"/>
<path id="Vector_6" d="M5.48823 8.3372C5.18814 8.16625 4.84518 8.16625 4.55366 8.3372L3.71341 8.80983C3.49048 8.94055 3.34473 9.202 3.34473 9.50368C5.24301 12.6884 7.78607 14.4029 9.87813 17.4277L9.96387 17.478C10.1439 17.5786 10.3583 17.5786 10.5469 17.478L10.6609 17.4126C10.8753 15.6931 11.4377 14.2068 11.9273 12.5305C11.9273 12.2389 11.7816 11.9674 11.5586 11.8367L5.48823 8.3372Z" fill="#FCD53F"/>
<path id="Vector_7" d="M3.34473 13.2775V9.48643C3.34473 9.28531 3.52478 9.14453 3.68769 9.23504L9.99816 12.8753C10.1611 12.9658 10.264 13.1669 10.264 13.3781V17.1289C10.264 17.3703 10.0496 17.5312 9.86098 17.4205L3.65339 13.8406C3.56129 13.7914 3.48321 13.7121 3.42847 13.6123C3.37374 13.5124 3.34467 13.3962 3.34473 13.2775Z" fill="#FFF478"/>
<path id="Vector_8" d="M20.9467 7.30577V11.0968C20.9467 11.3382 20.8267 11.5594 20.6466 11.66L13.6245 15.6119C13.5821 15.6373 13.5349 15.6495 13.4873 15.6473C13.4398 15.645 13.3935 15.6285 13.353 15.5991C13.3125 15.5698 13.2791 15.5288 13.2561 15.4799C13.2331 15.4311 13.2211 15.3761 13.2215 15.3203V11.5695C13.2215 11.3583 13.3244 11.1572 13.4873 11.0667L20.6037 7.05437C20.7666 6.96387 20.9467 7.10465 20.9467 7.30577ZM11.9268 12.5238V16.3148C11.9268 16.5562 11.8154 16.7774 11.6267 16.8679L10.6579 17.421C10.6155 17.4464 10.5683 17.4586 10.5207 17.4563C10.4732 17.4541 10.4269 17.4375 10.3864 17.4082C10.3459 17.3789 10.3125 17.3378 10.2895 17.289C10.2665 17.2402 10.2545 17.1852 10.2549 17.1294V13.3785C10.2549 13.1674 10.3578 12.9662 10.5207 12.8757L11.5839 12.2724C11.7468 12.1819 11.9268 12.3227 11.9268 12.5238Z" fill="#F9C23C"/>
</g>
</g>
</svg>
